# xmcd
#
# Track frame offsets:
#	150
#	17167
#	37597
#	58354
#	81138
#	85352
#	108706
#	126150
#	147056
#
# Disc length: 2211 seconds
#
# Revision: 0
# Processed by: cddbd v1.5.2PL0 Copyright (c) Steve Scherf et al.
# Submitted via: dBpowerAMP V4.0
#
DISCID=7408a109
DTITLE=Pee Wee Bluesgang - Our blue side
DYEAR=1979
DGENRE=Blues
TTITLE0=ABC Blues
TTITLE1=Wake up in the morning
TTITLE2=Trouble
TTITLE3=Further on up the road
TTITLE4=I still love you
TTITLE5=Blues for Freddie K.
TTITLE6=The seeker
TTITLE7=Ba bad woman
TTITLE8=Heavy´s Blues
EXTD=
EXTT0=
EXTT1=
EXTT2=
EXTT3=
EXTT4=
EXTT5=
EXTT6=
EXTT7=
EXTT8=
PLAYORDER=
